<svg width="16.023193" height="14.833344" viewBox="0 0 16.0232 14.8333" fill="none" xmlns="http://www.w3.org/2000/svg" xmlns:xlink="http://www.w3.org/1999/xlink">
	<desc>
			Created with Pixso.
	</desc>
	<defs/>
	<path id="Icon" d="M0.75 0.75L1.25 0.75C2.1 0.75 2.81 1.39 2.91 2.23L3.58 8.43C3.68 9.27 4.39 9.91 5.24 9.91L12.45 9.91C13.21 9.91 13.88 9.4 14.07 8.66L15.22 4.15C15.48 3.09 14.69 2.07 13.6 2.07L3.75 2.07M4.08 14.08C3.62 14.08 3.25 13.71 3.25 13.25C3.25 12.78 3.62 12.41 4.08 12.41C4.54 12.41 4.91 12.78 4.91 13.25C4.91 13.71 4.54 14.08 4.08 14.08ZM3.77 12.93L4.39 12.93M3.77 13.56L4.39 13.56M13.25 14.08C12.78 14.08 12.41 13.71 12.41 13.25C12.41 12.78 12.78 12.41 13.25 12.41C13.71 12.41 14.08 12.78 14.08 13.25C14.08 13.71 13.71 14.08 13.25 14.08ZM12.93 12.93L13.56 12.93M12.93 13.56L13.56 13.56" stroke="#807D7E" stroke-opacity="1.000000" stroke-width="1.500000" stroke-linecap="round"/>
</svg>
